<svg xmlns="http://www.w3.org/2000/svg" width="84" height="96" viewBox="0 0 84 96" role="img" aria-label="Bars And Restaurants icon">
  <defs>
    <filter id="shadow" x="-20%" y="-20%" width="140%" height="140%">
      <feDropShadow dx="0" dy="6" stdDeviation="5" flood-color="#0B1F33" flood-opacity=".18"/>
    </filter>
  </defs>
  <path filter="url(#shadow)" d="M42 4C23.8 4 9 18.6 9 36.6c0 24.7 33 55.4 33 55.4s33-30.7 33-55.4C75 18.6 60.2 4 42 4z" fill="#0B1F33"/>
  <circle cx="42" cy="36" r="27" fill="#0B1F33" stroke="#C8A96A" stroke-width="3"/>
  
      <path d="M30 19h26v4c0 8-5 14-12 16v9h8v4H34v-4h8v-9c-7-2-12-8-12-16v-4z" fill="#FFFFFF"/>
      <path d="M31 24h24" stroke="#C8A96A" stroke-width="3" stroke-linecap="round"/>
      <path d="M23 17h8v7c0 4-2 7-5 8v16h5v4H17v-4h5V32c-3-1-5-4-5-8v-7h6v8h2v-8z" fill="#FFFFFF"/>
    
</svg>