<svg xmlns="http://www.w3.org/2000/svg" width="84" height="96" viewBox="0 0 84 96" role="img" aria-label="EV Charging icon">
  <defs>
    <filter id="shadow" x="-20%" y="-20%" width="140%" height="140%">
      <feDropShadow dx="0" dy="6" stdDeviation="5" flood-color="#0B1F33" flood-opacity=".18"/>
    </filter>
  </defs>
  <path filter="url(#shadow)" d="M42 4C23.8 4 9 18.6 9 36.6c0 24.7 33 55.4 33 55.4s33-30.7 33-55.4C75 18.6 60.2 4 42 4z" fill="#0B1F33"/>
  <circle cx="42" cy="36" r="27" fill="#0B1F33" stroke="#C8A96A" stroke-width="3"/>
  
      <path d="M26 20h22c2 0 4 2 4 4v30H22V24c0-2 2-4 4-4z" fill="#FFFFFF"/>
      <path d="M31 27h12v10H31z" fill="#0B1F33"/>
      <path d="M53 30h4c3 0 5 2 5 5v12c0 3-2 5-5 5h-5" stroke="#FFFFFF" stroke-width="4" stroke-linecap="round" fill="none"/>
      <path d="M40 40l-7 8h7l-3 7 8-10h-7z" fill="#C8A96A"/>
    
</svg>